<?xml version="1.0" encoding="UTF-8"?>
<svg width="18px" height="18px" viewBox="0 0 18 18" version="1.1" xmlns="http://www.w3.org/2000/svg" xmlns:xlink="http://www.w3.org/1999/xlink">
    <title>fill-color</title>
    <g id="页面-1" stroke="none" stroke-width="1" fill="none" fill-rule="evenodd">
        <g id="第一次标注-有效数据" transform="translate(-27.000000, -650.000000)" fill="#A6B9C8" fill-rule="nonzero">
            <g id="编组-24" transform="translate(12.000000, 193.000000)">
                <g id="编组-22" transform="translate(0.000000, 110.000000)">
                    <g id="fill-color" transform="translate(15.000000, 347.000000)">
                        <path d="M10.9487021,0.722116666 L17.531205,8.63617661 C18.2424491,9.4912926 18.1319324,10.766292 17.2843211,11.4838511 C16.8441032,11.8573774 16.2657138,12.0214618 15.6970441,11.9341487 L15.6971674,15.8482754 C15.6971674,16.6545545 15.0493525,17.3081052 14.2501494,17.3081052 C13.4509463,17.3081052 12.8031314,16.6545545 12.8031314,15.8482754 L12.8031314,13.8112681 L8.724211,17.2643137 C7.40565363,18.3805088 5.43970392,18.2070305 4.33330471,16.8767809 L0.755953145,12.5755656 C-0.350446061,11.2453339 -0.178490176,9.26220878 1.14019046,8.14601362 L2.09055269,7.34131562 C2.11618681,7.31032228 2.14449635,7.2816848 2.1751483,7.25574006 L2.34566021,7.11132576 C2.61520439,6.88237659 3.01468511,6.9040747 3.25830533,7.16089681 C3.50192555,7.41771892 3.50586332,7.82130073 3.26730149,8.0829112 L3.27776148,8.09547128 L2.1693548,9.0339244 C1.33119973,9.74361347 1.21365692,10.9981649 1.89887427,11.8529612 L1.92236522,11.8815989 L5.21354627,15.8386288 C5.91700696,16.6842048 7.16054825,16.8027884 8.00784261,16.1113798 L8.03619376,16.0878052 L11.5128195,13.1445711 C10.8989555,12.8957322 10.4656407,12.2894551 10.4656407,11.5810984 L10.4655351,6.43038098 L8.3083824,3.83682168 L7.54112281,4.48632184 C7.35851738,4.64251143 7.10701286,4.68814747 6.8819054,4.60593828 C6.65679794,4.5237291 6.49252677,4.32625188 6.45133495,4.08833159 C6.41014313,3.85041131 6.4983326,3.60844743 6.682488,3.45412112 L7.53733679,2.73061063 C7.24771483,1.95083737 7.45786553,1.03867693 8.12616023,0.472940265 C8.97377155,-0.24461884 10.237458,-0.133123682 10.9487021,0.722223258 L10.9487021,0.722116666 Z M8.984707,1.50524757 C8.70963613,1.73814643 8.66636131,2.14879659 8.88674585,2.43483579 L8.90233018,2.45448424 L11.5787491,5.67215706 L11.5787491,11.5810807 C11.579218,11.8860844 11.8209545,12.1349284 12.1232105,12.1415505 C12.4254666,12.1481725 12.6776832,11.9101504 12.6912764,11.6054547 L12.6918399,11.5810984 L12.6918399,11.1880585 C12.6918399,10.8469611 12.9659272,10.5704471 13.304031,10.5704471 C13.6421348,10.5704471 13.9162221,10.8469611 13.9162222,11.1880585 L13.9162222,15.8482754 C13.9159405,16.0306835 14.0596161,16.1801837 14.2403456,16.1856868 C14.4210751,16.190894 14.5732003,16.0501585 14.5835307,15.8680482 L14.5840942,15.8482754 L14.5840942,11.1319378 C14.5840519,10.9229144 14.6801721,10.7257085 14.8442835,10.5981185 C15.0083949,10.4705284 15.2219096,10.4270056 15.4222493,10.4803058 L15.6893841,10.5364442 L15.6916204,10.5353073 C15.9703363,10.6796562 16.3110482,10.6091438 16.5109203,10.3657483 C16.7107925,10.1223527 16.7160925,9.77150706 16.5236651,9.52207991 L16.5080631,9.50232487 L9.92557775,1.58822939 C9.68850609,1.30316116 9.26725642,1.26595329 8.98468939,1.50512322 L8.984707,1.50524757 Z M0.872157639,3.48096452 L0.896423406,3.48938528 L8.21809896,6.17781141 C8.56000522,6.30334823 8.73939264,6.68189504 8.62154736,7.02917601 C8.50370207,7.37645699 8.13199211,7.5646699 7.78555903,7.45247323 L7.76129326,7.44405247 L0.439617711,4.75562635 C0.0977114463,4.63008952 -0.0816759756,4.25154272 0.0361693111,3.90426174 C0.154014598,3.55698077 0.525724564,3.36876786 0.872157639,3.48096452 L0.872157639,3.48096452 Z" id="形状"></path>
                    </g>
                </g>
            </g>
        </g>
    </g>
</svg>