<?xml version="1.0" encoding="UTF-8"?>
<svg width="19px" height="19px" viewBox="0 0 19 19" version="1.1" xmlns="http://www.w3.org/2000/svg" xmlns:xlink="http://www.w3.org/1999/xlink">
    <title>fuzhuxian</title>
    <g id="页面-1" stroke="none" stroke-width="1" fill="none" fill-rule="evenodd">
        <g id="第一次标注-有效数据" transform="translate(-26.000000, -315.000000)" fill="#A6B9C8" fill-rule="nonzero">
            <g id="编组-24" transform="translate(12.000000, 193.000000)">
                <g id="编组-22" transform="translate(0.000000, 110.000000)">
                    <g id="fuzhuxian" transform="translate(14.000000, 12.000000)">
                        <path d="M13.7951515,3.05660828 L5.19769456,3.05660828 C4.01063348,3.05660828 3.04833033,4.01820986 3.04833033,5.20440552 L3.04833033,13.7955945 C3.04833033,14.9817901 4.01063348,15.9433917 5.19769456,15.9433917 L13.7951515,15.9433917 C14.9822126,15.9433917 15.9445157,14.9817901 15.9445157,13.7955945 L15.9445157,5.20440552 C15.9445157,4.01820986 14.9822126,3.05660828 13.7951515,3.05660828 Z M5.19769456,4.48847311 L13.7951515,4.48847311 C14.1908385,4.48847311 14.5116062,4.80900697 14.5116062,5.20440552 L14.5116062,13.7955945 C14.5116062,14.190993 14.1908385,14.5115269 13.7951515,14.5115269 L5.19769456,14.5115269 C4.80200754,14.5115269 4.48123982,14.190993 4.48123982,13.7955945 L4.48123982,5.20440552 C4.48123982,4.80900697 4.80200754,4.48847311 5.19769456,4.48847311 L5.19769456,4.48847311 Z M3.54076294,2.38554097 C3.78291308,2.38551506 3.98672965,2.20441709 4.0150666,1.96410603 L4.01842067,1.90825269 L4.01842067,0.476387869 C4.01793759,0.223913734 3.82076991,0.0154885113 3.56853799,0.000818543188 C3.31630606,-0.013851425 3.09627202,0.170309083 3.06648052,0.421022429 L3.06312645,0.476387869 L3.06312645,1.90825269 C3.06312645,2.17185173 3.27697159,2.38554097 3.54076294,2.38554097 L3.54076294,2.38554097 Z M1.90964492,4.00259365 C2.16401705,4.00459676 2.37532795,3.80703048 2.39022552,3.55327219 C2.40512308,3.29951391 2.21837943,3.07861283 1.96551778,3.05088083 L1.90964492,3.0480171 L0.476735433,3.0480171 C0.224077098,3.04849982 0.0154998115,3.24552375 0.000819140383,3.49757179 C-0.0138615307,3.74961983 0.170433337,3.96949345 0.4213296,3.99926323 L0.476735433,4.00259365 L1.90964492,4.00259365 L1.90964492,4.00259365 Z M17.0903763,4.00259365 C16.8359995,4.00460897 16.6246769,3.80704564 16.6097735,3.55328296 C16.59487,3.29952027 16.7816158,3.07861247 17.0344822,3.05088083 L17.0903551,3.0480171 L18.5232646,3.0480171 C18.7759229,3.04849982 18.9845002,3.24552375 18.9991809,3.49757179 C19.0138615,3.74961983 18.8295667,3.96949345 18.5786704,3.99926323 L18.5232646,4.00259365 L17.0903551,4.00259365 L17.0903763,4.00259365 Z M15.4520619,2.38554115 C15.2097336,2.3857518 15.0056489,2.20459401 14.9772912,1.96410603 L14.9744254,1.90825269 L14.9744254,0.476387869 C14.9749085,0.223913734 15.1720762,0.0154885113 15.4243081,0.000818543188 C15.67654,-0.013851425 15.896574,0.170309083 15.9263655,0.421022429 L15.9296984,0.476387869 L15.9296984,1.90825269 C15.9296984,2.17185173 15.7158532,2.38554115 15.4520619,2.38554115 Z M3.54078417,16.614459 C3.7829262,16.6144957 3.9867306,16.7955909 4.0150666,17.035894 L4.01842067,17.0917473 L4.01842067,18.5236121 C4.01793759,18.7760863 3.82076991,18.9845115 3.56853799,18.9991815 C3.31630606,19.0138514 3.09627202,18.8296909 3.06648052,18.5789776 L3.06314768,18.5236121 L3.06314768,17.0917473 C3.06314768,16.8281483 3.27699282,16.614459 3.54078417,16.614459 L3.54078417,16.614459 Z M1.90964492,14.9974064 C2.16401705,14.9954032 2.37532795,15.1929695 2.39022552,15.4467278 C2.40512308,15.7004861 2.21837943,15.9213872 1.96551778,15.9491192 L1.90964492,15.9519829 L0.476735433,15.9519829 C0.224077098,15.9515002 0.0154998115,15.7544762 0.000819140383,15.5024282 C-0.0138615307,15.2503802 0.170433337,15.0305065 0.4213296,15.0007368 L0.476735433,14.9974064 L1.90964492,14.9974064 L1.90964492,14.9974064 Z M17.0903763,14.9974064 C16.8359995,14.995391 16.6246769,15.1929544 16.6097735,15.446717 C16.59487,15.7004797 16.7816158,15.9213875 17.0344822,15.9491192 L17.0903551,15.9519829 L18.5232646,15.9519829 C18.7759229,15.9515002 18.9845002,15.7544762 18.9991809,15.5024282 C19.0138615,15.2503802 18.8295667,15.0305065 18.5786704,15.0007368 L18.5232646,14.9974064 L17.0903551,14.9974064 L17.0903763,14.9974064 Z M15.4520619,16.6144588 C15.2097336,16.6142482 15.0056489,16.795406 14.9772912,17.035894 L14.9744254,17.0917473 L14.9744254,18.5236121 C14.9749085,18.7760863 15.1720762,18.9845115 15.4243081,18.9991815 C15.67654,19.0138514 15.896574,18.8296909 15.9263655,18.5789776 L15.9296984,18.5236121 L15.9296984,17.0917473 C15.9296984,16.8281483 15.7158532,16.6144588 15.4520619,16.6144588 L15.4520619,16.6144588 Z" id="形状"></path>
                    </g>
                </g>
            </g>
        </g>
    </g>
</svg>