<?xml version="1.0" encoding="UTF-8"?>
<svg width="18px" height="18px" viewBox="0 0 18 18" version="1.1" xmlns="http://www.w3.org/2000/svg" xmlns:xlink="http://www.w3.org/1999/xlink">
    <title>tuodong</title>
    <g id="页面-1" stroke="none" stroke-width="1" fill="none" fill-rule="evenodd">
        <g id="第一次标注-有效数据" transform="translate(-27.000000, -415.000000)" fill="#A6B9C8" fill-rule="nonzero">
            <g id="编组-24" transform="translate(12.000000, 193.000000)">
                <g id="编组-22" transform="translate(0.000000, 110.000000)">
                    <g id="tuodong" transform="translate(15.000000, 112.000000)">
                        <path d="M15.8761269,3.54214285 L15.8118451,3.54342857 C15.5510582,3.55026254 15.2933013,3.60112149 15.049462,3.69385715 L15.049462,2.799 C15.049462,1.74471428 14.0980903,0.88585715 12.9268746,0.88585715 C12.5694674,0.88585715 12.2210596,0.96685715 11.9099354,1.11985715 C11.5666702,0.443571434 10.812001,0 9.97890792,0 C9.14324358,0 8.38986003,0.443571434 8.04788047,1.11985715 C7.73127563,0.96519571 7.38329538,0.885564619 7.03094125,0.88714285 C5.86101116,0.88714285 4.90835381,1.746 4.90835381,2.80028572 L4.90835381,8.80328572 L3.87984384,7.19614285 C3.59319473,6.73475548 3.13481602,6.40633134 2.60577712,6.28328572 C2.07866577,6.15471428 1.51555655,6.22542857 1.0462989,6.47871428 C0.0859277064,6.99685715 -0.280478963,8.16942857 0.231204741,9.09 L0.240204203,9.108 C0.416336527,9.432 1.12343714,10.728 2.84619133,13.8304286 C3.77956412,15.5147143 4.80807409,16.7194286 5.90215155,17.4124286 C6.78281321,17.9717143 7.40763302,18 7.52462603,18 L12.4383324,18 C13.3087089,18 14.1186605,17.7454286 14.8450457,17.2414286 C15.5200053,16.7747143 16.1036847,16.101 16.5806563,15.2408572 C17.5088865,13.5655714 18,11.2551429 18,8.55642857 L18,5.45657143 C18,4.401 17.0486283,3.54214287 15.8774126,3.54214285 L15.8761269,3.54214285 Z M8.5055674,9.14271428 C8.86426025,9.14271428 9.15352868,8.88042857 9.15481432,8.55771428 L9.15481432,1.91314285 C9.15481432,1.503 9.52507791,1.17 9.98019356,1.17 C10.4353092,1.17 10.8055728,1.50428572 10.8055728,1.91314285 L10.8055728,8.55771428 C10.8055728,8.87914285 11.0961269,9.14271428 11.4535341,9.14271428 C11.8122269,9.14271428 12.102781,8.88042857 12.102781,8.55771428 L12.102781,2.799 C12.102781,2.38885715 12.4730446,2.05585715 12.9281602,2.05585715 C13.3832759,2.05585715 13.7535395,2.39014287 13.7535395,2.799 L13.7535395,9.44357143 C13.7535395,9.765 14.0440936,10.0285714 14.4015008,10.0285714 C14.7601936,10.0285714 15.0507477,9.76628572 15.0507477,9.44357143 L15.0507477,5.45785715 C15.0507477,5.04642858 15.4210113,4.71214287 15.8761269,4.71214285 C16.3312426,4.71214285 16.7015062,5.04642857 16.7015062,5.45785715 L16.7015062,8.55771428 C16.7015062,11.0751428 16.2566756,13.2055714 15.41844,14.7188572 C14.8836148,15.6831429 13.9322431,16.8312857 12.4357611,16.8312857 L7.54005367,16.8312857 C7.49505636,16.8274286 7.11579331,16.7772857 6.55011283,16.3941428 C5.94072068,15.9827143 5.00477662,15.1148571 4.00455067,13.3084286 C3.13019026,11.7376731 2.26194985,10.1635183 1.39984918,8.586 L1.38699282,8.55642857 L1.38185026,8.55257143 C1.18861079,8.16434959 1.33539574,7.692796 1.71483036,7.48285715 C2.07854436,7.28875439 2.53050277,7.41161326 2.74591161,7.76314285 L4.28610528,10.1674286 C4.58180189,10.6585714 4.92763838,10.9067143 5.30818705,10.9067143 C5.37612277,10.9065785 5.4438285,10.8988156 5.51003214,10.8835714 C5.97286163,10.7781429 6.205562,10.386 6.20556199,9.72128572 L6.20556199,2.799 C6.20556199,2.38885715 6.57582558,2.05585715 7.03094125,2.05585715 C7.4860569,2.05585715 7.85760613,2.39014287 7.85760613,2.799 L7.85760613,8.55771428 C7.85760613,8.88042857 8.1481602,9.14142857 8.5055674,9.14271428 L8.5055674,9.14271428 Z" id="形状"></path>
                    </g>
                </g>
            </g>
        </g>
    </g>
</svg>