<?xml version="1.0" encoding="UTF-8"?>
<svg width="19px" height="18px" viewBox="0 0 19 18" version="1.1" xmlns="http://www.w3.org/2000/svg" xmlns:xlink="http://www.w3.org/1999/xlink">
    <title>duobianxing</title>
    <g id="页面-1" stroke="none" stroke-width="1" fill="none" fill-rule="evenodd">
        <g id="第一次标注-有效数据" transform="translate(-26.000000, -261.000000)" fill="#A6B9C8" fill-rule="nonzero">
            <g id="编组-24" transform="translate(12.000000, 193.000000)">
                <g id="duobianxing" transform="translate(14.000000, 68.000000)">
                    <path d="M7.17674955,1.58333333 C7.33257887,1.80912559 7.42497325,2.08230634 7.42497325,2.37848444 C7.42497325,2.55549442 7.38911872,2.72344483 7.32982083,2.87885124 L12.4046165,2.87885124 C12.342657,2.71941529 12.3103973,2.54977519 12.3094641,2.37848444 C12.3094641,2.08230632 12.4025479,1.80912559 12.5576878,1.58333333 L7.17674955,1.58333333 Z M14.9040912,3.0231074 C14.7117178,3.39245893 14.3642047,3.66563967 13.9456719,3.74578198 L16.4161873,7.83234302 C16.6621684,7.52533847 17.026228,7.33920499 17.4166667,7.32082599 L14.9040912,3.0231074 L14.9040912,3.0231074 Z M3.37616892,7.83234302 L5.8439262,3.7513571 C5.43065095,3.68926981 5.06791984,3.44015755 4.85861602,3.07467722 L2.3756895,7.32152289 C2.76610897,7.33937512 3.13028537,7.52531461 3.37616892,7.83234302 L3.37616892,7.83234302 Z M16.4161873,9.58432365 L13.879479,13.7802964 C14.293943,13.8384597 14.6593855,14.0848665 14.8716842,14.4493104 L17.4166667,10.0958407 C17.026228,10.0774617 16.6621684,9.89132819 16.4161873,9.58432365 L16.4161873,9.58432365 Z M5.90942968,13.7747212 L3.37547942,9.58432365 C3.12949829,9.89132819 2.76543863,10.0774617 2.375,10.0958407 L4.89033349,14.3977406 C5.11878646,14.0444171 5.49374316,13.8151892 5.90942968,13.7747212 Z M12.4908052,15.8333333 C12.3732656,15.6267471 12.3107819,15.3928672 12.3094641,15.1545628 C12.3094641,14.932255 12.3660039,14.7245819 12.4577088,14.5378154 L7.27741806,14.5378154 C7.36912292,14.7245819 7.42566277,14.9315581 7.42566277,15.1545628 C7.42566277,15.4026555 7.35602223,15.6319322 7.24432157,15.8333333 L12.4908052,15.8333333 L12.4908052,15.8333333 Z" id="形状"></path>
                    <path d="M13.2706764,1.41656499 C13.6572146,1.41656499 13.9721976,1.73458384 13.9721976,2.1248475 C13.9721976,2.51511117 13.6572146,2.83312999 13.2706764,2.83312999 C12.8841383,2.83312999 12.5691552,2.51511114 12.5691552,2.1248475 C12.5691552,1.73458386 12.8834367,1.41656499 13.2706764,1.41656499 M13.2706764,0 C12.1083581,0 11.1661128,0.95132663 11.1661128,2.1248475 C11.1661128,3.29836837 12.1083581,4.249695 13.2706764,4.249695 C14.4329948,4.249695 15.37524,3.29836837 15.37524,2.1248475 C15.37524,0.95132663 14.4329948,0 13.2706764,0 Z M16.8954364,8.00005084 C17.2819746,8.00005084 17.5969576,8.31806969 17.5969576,8.70833333 C17.5969576,9.09859698 17.2819746,9.41661583 16.8954364,9.41661583 C16.5088983,9.41661583 16.1939152,9.09859698 16.1939152,8.70833333 C16.1939152,8.31806969 16.5081967,8.00005084 16.8954364,8.00005084 M16.8954364,6.58348583 C15.733118,6.58348583 14.7908728,7.53481246 14.7908728,8.70833333 C14.7908728,9.8818542 15.733118,10.8331808 16.8954364,10.8331808 C18.0577548,10.8331808 19,9.8818542 19,8.70833333 C19,7.53481246 18.0577548,6.58348583 16.8954364,6.58348583 L16.8954364,6.58348583 Z M2.10456358,8.00005084 C2.49110176,8.00005084 2.80608477,8.31806969 2.80608477,8.70833333 C2.80608477,9.09859698 2.49110174,9.41661583 2.10456358,9.41661583 C1.71802542,9.41661583 1.40304239,9.09859698 1.40304239,8.70833333 C1.40304239,8.31806969 1.71802542,8.00005084 2.10456358,8.00005084 M2.10456358,6.58348583 C0.94224521,6.58348583 0,7.53481246 0,8.70833333 C0,9.8818542 0.94224521,10.8331808 2.10456358,10.8331808 C3.26688195,10.8331808 4.20912716,9.8818542 4.20912716,8.70833333 C4.20912716,7.53481246 3.26688195,6.58348583 2.10456358,6.58348583 L2.10456358,6.58348583 Z M5.74054793,1.41656499 C6.12708612,1.41656499 6.44206912,1.73458384 6.44206912,2.1248475 C6.44206912,2.51511117 6.1270861,2.83312999 5.74054793,2.83312999 C5.35400977,2.83312999 5.03902672,2.51511114 5.03902672,2.1248475 C5.03902672,1.73458386 5.35330821,1.41656499 5.74054793,1.41656499 M5.74054793,0 C4.57822956,0 3.63598435,0.95132663 3.63598435,2.1248475 C3.63598435,3.29836837 4.57822956,4.249695 5.74054793,4.249695 C6.9028663,4.249695 7.84511151,3.29836837 7.84511151,2.1248475 C7.84511151,0.95132663 6.9028663,0 5.74054793,0 Z M13.2706764,14.5835367 C13.6572146,14.5835367 13.9721976,14.9015555 13.9721976,15.2918192 C13.9721976,15.6820828 13.6572146,16.0001017 13.2706764,16.0001017 C12.8841383,16.0001017 12.5691552,15.6820828 12.5691552,15.2918192 C12.5691552,14.9015555 12.8834367,14.5835367 13.2706764,14.5835367 M13.2706764,13.1669717 C12.5187883,13.1669717 11.8240149,13.5719653 11.4480708,14.2293954 C11.0721268,14.8868255 11.0721268,15.6968128 11.4480708,16.3542429 C11.8240149,17.011673 12.5187883,17.4166667 13.2706764,17.4166667 C14.4329948,17.4166667 15.37524,16.46534 15.37524,15.2918192 C15.37524,14.1182983 14.4329948,13.1669717 13.2706764,13.1669717 L13.2706764,13.1669717 Z M5.74054793,14.5835367 C6.12708612,14.5835367 6.44206912,14.9015555 6.44206912,15.2918192 C6.44206912,15.6820828 6.1270861,16.0001017 5.74054793,16.0001017 C5.35400977,16.0001017 5.03902672,15.6820828 5.03902672,15.2918192 C5.03902672,14.9015555 5.35330821,14.5835367 5.74054793,14.5835367 M5.74054793,13.1669717 C4.98865977,13.1669717 4.29388644,13.5719653 3.91794236,14.2293954 C3.54199827,14.8868255 3.54199827,15.6968128 3.91794236,16.3542429 C4.29388644,17.011673 4.98865977,17.4166667 5.74054793,17.4166667 C6.9028663,17.4166667 7.84511151,16.46534 7.84511151,15.2918192 C7.84511151,14.1182983 6.9028663,13.1669717 5.74054793,13.1669717 L5.74054793,13.1669717 Z" id="形状"></path>
                </g>
            </g>
        </g>
    </g>
</svg>