<?xml version="1.0" encoding="UTF-8"?>
<svg width="19px" height="19px" viewBox="0 0 19 19" version="1.1" xmlns="http://www.w3.org/2000/svg" xmlns:xlink="http://www.w3.org/1999/xlink">
    <title>矩形标注按钮</title>
    <g id="页面-1" stroke="none" stroke-width="1" fill="none" fill-rule="evenodd">
        <g id="第一次标注-有效数据" transform="translate(-26.000000, -208.000000)" fill="#A6B9C8" fill-rule="nonzero">
            <g id="编组-24" transform="translate(12.000000, 193.000000)">
                <g id="编组-25" transform="translate(14.000000, 15.000000)">
                    <g id="矩形标注按钮">
                        <path d="M16.9637893,13.6594531 L16.9637893,5.34054691 C18.2451576,5.01035487 19.1014322,3.8039732 18.9903237,2.48541854 C18.8792152,1.16686389 17.8331361,0.12078479 16.5145815,0.00967627028 C15.1960268,-0.10143225 13.9896451,0.754842368 13.6594531,2.03621066 L5.34054691,2.03621066 C5.01035487,0.754842368 3.8039732,-0.10143225 2.48541854,0.00967627028 C1.16686389,0.12078479 0.12078479,1.16686389 0.00967627028,2.48541854 C-0.10143225,3.8039732 0.754842368,5.01035487 2.03621066,5.34054691 L2.03621066,13.6594531 C0.754842368,13.9896451 -0.10143225,15.1960268 0.00967627028,16.5145815 C0.12078479,17.8331361 1.16686389,18.8792152 2.48541854,18.9903237 C3.8039732,19.1014322 5.01035487,18.2451576 5.34054691,16.9637893 L13.6594531,16.9637893 C13.9896451,18.2451576 15.1960268,19.1014322 16.5145815,18.9903237 C17.8331361,18.8792152 18.8792152,17.8331361 18.9903237,16.5145815 C19.1014322,15.1960268 18.2451576,13.9896451 16.9637893,13.6594531 L16.9637893,13.6594531 Z M16.288158,1.36056073 C16.9910815,1.42269107 17.5301117,2.01146681 17.5301117,2.71713085 C17.5301117,3.42279488 16.9910815,4.01157062 16.288158,4.07370096 C15.7749028,4.11906681 15.2799927,3.8708824 15.0093648,3.43241985 C14.7387369,2.9939573 14.7387369,2.44030439 15.0093648,2.00184184 C15.2799927,1.56337929 15.7749028,1.31519488 16.288158,1.36056073 Z M1.36054217,2.71184204 C1.42262166,2.00887336 2.01141708,1.46978326 2.71712157,1.46978326 C3.42282605,1.46978326 4.01162148,2.00887336 4.07370096,2.71184204 C4.11906681,3.22509715 3.8708824,3.72000729 3.43241985,3.9906352 C2.9939573,4.26126312 2.44030439,4.26126312 2.00184184,3.9906352 C1.56337929,3.72000729 1.31519488,3.22509715 1.36056073,2.71184204 L1.36054217,2.71184204 Z M2.71184204,17.6394578 C2.00887336,17.5773783 1.46978326,16.9885829 1.46978326,16.2828784 C1.46978326,15.577174 2.00887336,14.9883785 2.71184204,14.926299 C3.22509715,14.8809332 3.72000729,15.1291176 3.9906352,15.5675802 C4.26126312,16.0060427 4.26126312,16.5596956 3.9906352,16.9981582 C3.72000729,17.4366207 3.22509715,17.6848051 2.71184204,17.6394393 L2.71184204,17.6394578 Z M13.6594531,15.612508 L5.34054691,15.612508 C5.09855903,14.6516763 4.34832374,13.901441 3.38749197,13.6594531 L3.38749197,5.34054691 C4.34832374,5.09855903 5.09855903,4.34832374 5.34054691,3.38749197 L13.6594531,3.38749197 C13.901441,4.34832374 14.6516763,5.09855903 15.612508,5.34054691 L15.612508,13.6594531 C14.6516763,13.901441 13.901441,14.6516763 13.6594531,15.612508 L13.6594531,15.612508 Z M16.288158,17.6394393 C15.7354357,17.6437159 15.2349511,17.3134875 15.0214531,16.8036455 C14.8079551,16.2938035 14.923796,15.7054868 15.3146414,15.3146414 C15.7054868,14.923796 16.2938035,14.8079551 16.8036455,15.0214531 C17.3134875,15.2349511 17.6437159,15.7354357 17.6394393,16.288158 C17.639429,17.0344458 17.0344458,17.639429 16.288158,17.6394393 L16.288158,17.6394393 Z" id="形状"></path>
                    </g>
                </g>
            </g>
        </g>
    </g>
</svg>