<?xml version="1.0" encoding="UTF-8"?>
<svg width="18px" height="18px" viewBox="0 0 18 18" version="1.1" xmlns="http://www.w3.org/2000/svg" xmlns:xlink="http://www.w3.org/1999/xlink">
    <title>full-screen</title>
    <g id="页面-1" stroke="none" stroke-width="1" fill="none" fill-rule="evenodd">
        <g id="第一次标注-有效数据" transform="translate(-27.000000, -559.000000)" fill="#A6B9C8" fill-rule="nonzero">
            <g id="编组-24" transform="translate(12.000000, 193.000000)">
                <g id="编组-22" transform="translate(0.000000, 110.000000)">
                    <g id="full-screen" transform="translate(15.000000, 256.000000)">
                        <path d="M18,17.4317631 L18,12.6129221 C18.0008827,12.4684959 17.945352,12.323167 17.8352134,12.2121394 C17.6122278,11.9905454 17.2533846,11.9905454 17.0313219,12.2121394 C16.9202805,12.323167 16.8647497,12.4680346 16.8647497,12.6129221 L16.8647497,16.0615594 L9.80323952,9.00002006 L16.8647497,1.93892197 L16.8647497,5.38619526 C16.8647497,5.53152414 16.9202604,5.67685302 17.0313219,5.78741932 C17.2534046,6.00947463 17.6122479,6.00947463 17.8352134,5.78741932 C17.945352,5.67687308 18.0008627,5.53106278 18,5.38619526 L18,0.56823693 C18.0008827,0.423349351 17.945352,0.278020469 17.8352134,0.166992814 C17.7232692,0.0564465801 17.5783637,0.000922723058 17.4334783,0.000461361529 L12.614001,0.000461361529 C12.4691156,0.000461361529 12.3237687,0.0564265209 12.2131687,0.166992814 C11.9901832,0.388626881 11.9901832,0.74784698 12.2131687,0.970363651 C12.3237286,1.08139131 12.4686542,1.1368951 12.614001,1.13643374 L16.0626036,1.13643374 L9.00063194,8.19753183 L1.93868037,1.13599244 L5.38638013,1.13599244 C5.53218841,1.13643374 5.67707385,1.08092994 5.78811524,0.969922349 C6.01019802,0.7483284 6.01019802,0.38816552 5.78811524,0.166551512 C5.67797662,0.0560052778 5.53216834,0.000481420726 5.38638013,0 L0.567825749,0 C0.422017469,0 0.276670608,0.0559651594 0.166090636,0.166551512 C0.0554906028,0.278040528 0,0.42336941 0,0.568698292 L0,5.38621532 C0,5.5315442 0.0559720831,5.67731439 0.166090636,5.78743938 C0.388173418,6.00949469 0.74747808,6.00949469 0.969119504,5.78743938 C1.07971954,5.67689314 1.13521014,5.53242681 1.13521014,5.38621532 L1.13521014,1.93894203 L8.19808456,9.00002006 L1.13567156,16.0615594 L1.13567156,12.6129422 C1.13567156,12.468516 1.08060225,12.3231871 0.969580923,12.2121594 C0.747498142,11.9905655 0.387752122,11.9905655 0.166552055,12.2121594 C0.0550492458,12.3231871 0.000461418606,12.4680546 0.000461418606,12.6129422 L0.000461418606,17.4317831 C0.000461418606,17.5766707 0.0564335017,17.7219996 0.166552055,17.8339299 C0.277593446,17.9436136 0.422478888,18 0.568287167,18 L5.38686161,18 C5.53266989,18 5.67755533,17.9449375 5.78859672,17.8339299 C6.0106795,17.612336 6.0106795,17.2521731 5.78859672,17.0305591 C5.67755533,16.9195314 5.53220847,16.8649303 5.38686161,16.8649303 L1.93872049,16.8649303 L9.00067207,9.8033909 L16.0626437,16.8649303 L12.6140412,16.8649303 C12.4691557,16.8649303 12.3238089,16.9204541 12.2132088,17.0305591 C11.9902233,17.2521931 11.9902233,17.6123159 12.2132088,17.8339299 C12.3237687,17.9436136 12.4686943,18 12.6140412,18 L17.4339597,18 C17.5784038,18 17.7237507,17.9435735 17.8356949,17.8339299 C17.945372,17.7215583 18,17.5766707 18,17.4317831 L18,17.4317631 Z" id="路径"></path>
                    </g>
                </g>
            </g>
        </g>
    </g>
</svg>