<?xml version="1.0" encoding="UTF-8"?>
<svg width="18px" height="13px" viewBox="0 0 18 13" version="1.1" xmlns="http://www.w3.org/2000/svg" xmlns:xlink="http://www.w3.org/1999/xlink">
    <title>yincang-2</title>
    <g id="页面-1" stroke="none" stroke-width="1" fill="none" fill-rule="evenodd">
        <g id="第一次标注-有效数据" transform="translate(-27.000000, -607.000000)" fill="#A6B9C8" fill-rule="nonzero">
            <g id="编组-24" transform="translate(12.000000, 193.000000)">
                <g id="编组-22" transform="translate(0.000000, 110.000000)">
                    <g id="yincang-2" transform="translate(15.000000, 304.000000)">
                        <path d="M18,6.45181038 L17.9970731,6.45181038 C17.3071248,4.64367648 16.1510134,3.0899562 14.6872693,1.96020171 L15.4874549,1.2235654 C15.7258744,1.00394984 15.7434355,0.630218127 15.5262478,0.388631254 L15.4457111,0.299282886 C15.2289072,0.0576960133 14.8597624,0.0398214736 14.6213669,0.259461413 L13.5783716,1.22020021 C12.2145967,0.441864751 10.6560175,0 8.99965215,0 C4.92773604,0 1.44579905,2.66969697 0.00256700955,6.45181038 L0,6.45181038 C0.00038385343,6.4532979 0.000743699902,6.45402946 0.00146343973,6.45551699 C0.000743723346,6.45627292 0.00038385343,6.45776044 0,6.45851641 L0.00256700955,6.45851641 C0.663942389,8.20505262 1.75340767,9.71631779 3.13184086,10.840488 L2.15736297,11.7383123 C1.91894348,11.9579522 1.90138229,12.3316596 2.11818617,12.5728806 L2.19874691,12.6629606 C2.41555078,12.9041817 2.78469557,12.9220318 3.02345093,12.7024163 L4.21290941,11.6065576 C5.6250255,12.4679012 7.25831179,12.96 8.99965215,12.96 C13.072264,12.96 16.5538411,10.2702094 17.9970731,6.45851643 L18,6.45851643 C17.9992803,6.45776049 17.9989204,6.45627297 17.9985366,6.45551701 C17.9989204,6.45402946 17.9992803,6.4532979 18,6.45181038 L18,6.45181038 Z M1.33155536,6.45551699 C2.6971535,3.40484579 5.61293418,1.29128387 8.99965215,1.29128387 C10.2817387,1.29128387 11.4957397,1.59429773 12.5841014,2.13589903 L10.8017609,3.77709 C10.2868487,3.4268171 9.66688126,3.22283262 8.99998803,3.22283262 C7.2121537,3.22283262 5.76268412,4.69017957 5.76268412,6.50092273 C5.76268412,7.0652513 5.90331755,7.59604984 6.15159722,8.05986151 L4.07846559,9.96868301 C2.90700009,9.07159032 1.95704066,7.86255865 1.33155536,6.45551699 L1.33155536,6.45551699 Z M10.9515588,6.50094711 C10.9515588,7.59161168 10.07741,8.4767799 9.00001199,8.4767799 C8.61292217,8.4767799 8.25222214,8.36287537 7.94897978,8.16557251 L10.7365782,5.59863591 C10.8742848,5.86887569 10.9515588,6.17559616 10.9515588,6.50094711 L10.9515588,6.50094711 Z M7.04884905,6.50094711 C7.04884905,5.40935588 7.92225415,4.52455345 9.00001199,4.52455345 C9.28566916,4.52455345 9.55702786,4.586712 9.80166096,4.69839747 L7.15284871,7.13748106 C7.08545884,6.93793475 7.04884905,6.72353769 7.04884905,6.50094711 L7.04884905,6.50094711 Z M8.99965215,11.6579134 C7.63331028,11.6579134 6.34388259,11.3109813 5.20166176,10.6960528 L6.97778862,9.06044613 C7.53149378,9.51011421 8.23463695,9.77886649 9.00001199,9.77886649 C10.7878463,9.77886649 12.2373159,8.31151954 12.2373159,6.50094711 C12.2373159,5.83761353 12.0424875,5.22027094 11.7077934,4.70398174 L13.7395171,2.83346981 C14.9945421,3.7361468 16.0107638,4.98687759 16.6684926,6.45551699 C15.3025106,9.52872036 12.38673,11.6579134 8.99965215,11.6579134 L8.99965215,11.6579134 Z" id="形状"></path>
                    </g>
                </g>
            </g>
        </g>
    </g>
</svg>