<?xml version="1.0" encoding="UTF-8"?>
<svg width="18px" height="18px" viewBox="0 0 18 18" version="1.1" xmlns="http://www.w3.org/2000/svg" xmlns:xlink="http://www.w3.org/1999/xlink">
    <title>缩小</title>
    <g id="页面-1" stroke="none" stroke-width="1" fill="none" fill-rule="evenodd">
        <g id="第一次标注-有效数据" transform="translate(-27.000000, -463.000000)" fill="#A6B9C8" fill-rule="nonzero">
            <g id="编组-24" transform="translate(12.000000, 193.000000)">
                <g id="编组-22" transform="translate(0.000000, 110.000000)">
                    <g id="缩小" transform="translate(15.000000, 160.000000)">
                        <path d="M14.5280942,0 L12.4661462,0 L12.4661462,1.04287653 L14.5280942,1.04287653 C15.8988865,1.04287653 17.016255,2.22496608 17.016255,3.68059701 L17.016255,5.33161465 L18,5.33161465 L18,3.68059701 C18,1.65101764 16.4425957,0 14.5280942,0 L14.5280942,0 Z M17.016255,14.3071913 C17.016255,15.7603799 15.9011903,16.9449118 14.5280942,16.9449118 L12.4661462,16.9449118 L12.4661462,17.9877883 L14.5280942,17.9877883 C16.4425957,17.9877883 18,16.3367707 18,14.3071913 L18,12.6561737 L17.016255,12.6561737 L17.016255,14.3071913 Z M0.98374504,14.319403 L0.98374504,12.6683853 L0,12.6683853 L0,14.319403 C0,16.3489824 1.55740433,18 3.4719058,18 L5.53385383,18 L5.53385383,16.9571235 L3.4719058,16.9571235 C2.10111353,16.9571235 0.98374504,15.7750339 0.98374504,14.319403 Z M2.85677717,5.77123474 L9.63471138,5.77123474 L9.63471138,6.81411126 L2.85677717,6.81411126 L2.85677717,5.77123474 Z" id="形状"></path>
                        <path d="M14.9818735,15.6 L15.6774194,14.8769797 L11.2991655,10.3138122 C12.0522896,9.2412523 12.4967941,7.92209945 12.4967941,6.49521179 C12.4967941,2.91123389 9.69618562,0 6.24839705,0 C2.80982101,0 0,2.91123389 0,6.49521179 C0,10.0696133 2.80060848,12.9904236 6.24839705,12.9904236 C7.96423037,12.9904236 9.52575385,12.2650092 10.6565916,11.0918969 L14.9818735,15.6 L14.9818735,15.6 Z M6.24839705,11.96814 C3.34645076,11.96814 0.983437353,9.51418048 0.983437353,6.49521179 C0.983437353,3.47624309 3.34414763,1.02228361 6.24839705,1.02228361 C9.15264647,1.02228361 11.5133567,3.4786372 11.5133567,6.49760589 C11.5133567,9.51657459 9.15264647,11.96814 6.24839705,11.96814 Z" id="形状"></path>
                    </g>
                </g>
            </g>
        </g>
    </g>
</svg>